<?xml version="1.0" encoding="utf-8"?>
<svg class="geolonia-svg-map" viewBox="0 0 420 320" xmlns="http://www.w3.org/2000/svg">
<style>
  .pink-link text {
    fill: #df0a0a;
    text-decoration: none;
    transition: fill 0.7s ease;
    font-weight: normal;
  }

  .pink-link circle,
  .pink-link line {
    stroke: #df0a0a;
    transition: stroke 0.7s ease, fill 0.7s ease;
    fill-opacity: 0.3;
  }

  /* どこかに hover すると全部変化 */
  .pink-link:hover text {
    fill: #080003;
    text-decoration: underline;
    font-weight: bold;
  }

  .pink-link:hover circle,
  .pink-link:hover line {
    stroke: #080003;
    fill: #080003;
  }
</style>


  <title>Hokkaido Only</title>
  
  <!-- Hokkaido only -->
  <g class="hokkaido prefecture" stroke-linejoin="round" fill="#EEEEEE" fill-rule="nonzero" stroke="#000000" stroke-width="1.0">
    <title>Hokkaido</title>
    <path d="M4,240 L3,245 L0,246 L0,237 L6,235 L4,240 Z M33,261 L32,250 L28,243 L23,242 L21,237 L17,236 L15,231 L19,223 L17,212 L19,209 L28,207 L34,198 L37,202 L39,201 L43,192 L49,187 L39,173 L40,166 L47,164 L60,174 L71,171 L71,174 L78,177 L83,174 L89,165 L83,140 L86,135 L93,132 L97,126 L96,103 L100,95 L101,85 L98,67 L90,48 L93,39 L92,33 L94,36 L99,35 L105,28 L131,55 L139,68 L155,85 L184,104 L213,109 L214,113 L219,118 L238,118 L260,91 L262,96 L252,119 L252,129 L255,135 L265,138 L263,140 L264,137 L258,137 L263,149 L269,156 L273,157 L280,149 L287,148 L277,156 L275,163 L258,166 L256,172 L252,177 L247,177 L245,175 L246,173 L243,172 L240,178 L243,180 L228,181 L220,178 L205,186 L191,202 L182,216 L179,225 L180,240 L178,248 L164,237 L141,228 L113,211 L100,209 L103,206 L88,214 L72,230 L69,227 L73,227 L68,226 L66,220 L58,212 L47,213 L42,220 L39,230 L40,234 L52,242 L62,242 L71,254 L80,257 L82,260 L76,265 L72,267 L63,263 L60,265 L60,261 L57,260 L55,265 L48,269 L48,278 L40,282 L37,287 L30,284 L27,278 L28,269 L33,261 Z M71,48 L73,45 L77,47 L79,52 L75,55 L71,52 L71,48 Z M65,35 L65,33 L67,35 L66,45 L63,35 L65,35 Z M369,17 L367,13 L365,13 L363,17 L365,23 L364,26 L359,28 L357,35 L350,34 L351,41 L341,50 L341,54 L335,54 L335,56 L339,58 L339,62 L336,65 L332,64 L332,69 L329,66 L330,71 L327,78 L331,79 L336,70 L341,69 L346,59 L356,50 L358,40 L363,43 L369,41 L384,24 L397,15 L406,13 L407,10 L404,6 L407,2 L402,0 L396,2 L384,20 L373,22 L369,17 Z M290,99 L295,93 L303,91 L308,84 L311,85 L314,79 L304,82 L296,77 L293,79 L289,89 L280,104 L280,107 L266,122 L268,129 L273,128 L273,132 L274,119 L282,114 L283,109 L286,109 L287,102 L290,99 Z M322,125 L334,115 L329,113 L325,116 L326,117 L319,119 L319,123 L321,122 L322,125 Z M300,142 L304,137 L297,139 L300,142 Z M291,146 L293,143 L289,144 L291,146 Z"/>
  </g>
<!-- 知床半島 -->
  <a xlink:href="/src/activities/Shiretoko_Five_Lakes.html" target="_blank" class="pink-link">
    <circle cx="255" cy="105" r="10" fill="#df0a0a" fill-opacity="0.3" />
    <line x1="255" y1="105" x2="340" y2="130" stroke-width="2" />
    <text x="335" y="145" font-size="14">Shiretoko</text>
  </a>
<!-- <a xlink:href="/spots/shiretoko" target="_blank">
  <circle cx="255" cy="105" r="10" fill="red" fill-opacity="0.5" stroke="red" />
  <line x1="255" y1="105" x2="340" y2="130" stroke="red" stroke-width="2" />
  <text x="335" y="145" font-size="14" fill="red">Shiretoko</text>
</a> -->

<!-- 宗谷岬 -->
<a xlink:href="/src/activities/Cape_Soya.html" target="_blank" class="pink-link">
  <circle cx="100" cy="30" r="10" fill="#df0a0a" fill-opacity="0.1" />
  <line x1="100" y1="30" x2="129" y2="10"  stroke-width="2" />
  <text x="130" y="10" font-size="14" >Souya</text>
</a>

<!-- 登別温泉 -->
<a xlink:href="/src/activities/Noboribetsu_Onsen_Town.html" target="_blank" class="pink-link">
  <circle cx="90" cy="210" r="10" fill="#df0a0a" fill-opacity="0.3" />
  <line x1="90" y1="210" x2="115" y2="250" stroke-width="2" />
  <text x="90" y="260" font-size="14" >Noboribetsu</text>
</a>


<a xlink:href="/src/activities/Es_Con_Field.html" target="_blank" class="pink-link">
  <circle cx="98" cy="188" r="7" fill="#df0a0a" fill-opacity="0.3" />
  <line x1="10" y1="105" x2="98" y2="188" stroke-width="2" />
  <text x="0" y="100" font-size="12" >ES CON FIELD</text>
</a>

  <line x1="20" y1="163" x2="85" y2="180" stroke="black" stroke-width="1" />
  <text x="0" y="160" font-size="9" fill="black">Sapporo</text>



</svg>
